<?xml version="1.0" encoding="UTF-8"?>
<!DOCTYPE svg PUBLIC "-//W3C//DTD SVG 1.1//EN" "http://www.w3.org/Graphics/SVG/1.1/DTD/svg11.dtd">
<svg xmlns="http://www.w3.org/2000/svg" version="1.1" width="128px" height="128px" style="shape-rendering:geometricPrecision; text-rendering:geometricPrecision; image-rendering:optimizeQuality; fill-rule:evenodd; clip-rule:evenodd" xmlns:xlink="http://www.w3.org/1999/xlink">
<g><path style="opacity:1" fill="#212034" d="M 91.5,11.5 C 88.8333,11.5 86.1667,11.5 83.5,11.5C 82.1667,11.5 80.8333,11.5 79.5,11.5C 79.5,10.1667 79.5,8.83333 79.5,7.5C 83.5,7.5 87.5,7.5 91.5,7.5C 91.5,8.83333 91.5,10.1667 91.5,11.5 Z"/></g>
<g><path style="opacity:1" fill="#212034" d="M 79.5,11.5 C 79.5,12.8333 79.5,14.1667 79.5,15.5C 78.1667,15.5 76.8333,15.5 75.5,15.5C 74.1667,15.5 72.8333,15.5 71.5,15.5C 70.1667,15.5 68.8333,15.5 67.5,15.5C 67.5,14.1667 67.5,12.8333 67.5,11.5C 71.5,11.5 75.5,11.5 79.5,11.5 Z"/></g>
<g><path style="opacity:1" fill="#69be2f" d="M 79.5,11.5 C 80.8333,11.5 82.1667,11.5 83.5,11.5C 83.5,12.8333 83.5,14.1667 83.5,15.5C 82.1667,15.5 80.8333,15.5 79.5,15.5C 79.5,14.1667 79.5,12.8333 79.5,11.5 Z"/></g>
<g><path style="opacity:1" fill="#4a6d35" d="M 83.5,11.5 C 86.1667,11.5 88.8333,11.5 91.5,11.5C 91.5,12.8333 91.5,14.1667 91.5,15.5C 92.8333,15.5 94.1667,15.5 95.5,15.5C 95.5,16.8333 95.5,18.1667 95.5,19.5C 96.8333,19.5 98.1667,19.5 99.5,19.5C 100.833,19.5 102.167,19.5 103.5,19.5C 103.5,20.8333 103.5,22.1667 103.5,23.5C 103.5,24.8333 103.5,26.1667 103.5,27.5C 100.833,27.5 98.1667,27.5 95.5,27.5C 95.5,28.8333 95.5,30.1667 95.5,31.5C 98.1667,31.5 100.833,31.5 103.5,31.5C 103.5,32.8333 103.5,34.1667 103.5,35.5C 102.167,35.5 100.833,35.5 99.5,35.5C 99.5,36.8333 99.5,38.1667 99.5,39.5C 98.1667,39.5 96.8333,39.5 95.5,39.5C 94.1667,39.5 92.8333,39.5 91.5,39.5C 91.5,40.8333 91.5,42.1667 91.5,43.5C 90.1667,43.5 88.8333,43.5 87.5,43.5C 86.1667,43.5 84.8333,43.5 83.5,43.5C 83.5,42.1667 83.5,40.8333 83.5,39.5C 82.1667,39.5 80.8333,39.5 79.5,39.5C 79.5,38.1667 79.5,36.8333 79.5,35.5C 78.1667,35.5 76.8333,35.5 75.5,35.5C 75.5,34.1667 75.5,32.8333 75.5,31.5C 74.1667,31.5 72.8333,31.5 71.5,31.5C 71.5,32.8333 71.5,34.1667 71.5,35.5C 70.1667,35.5 68.8333,35.5 67.5,35.5C 67.5,34.1667 67.5,32.8333 67.5,31.5C 67.5,30.1667 67.5,28.8333 67.5,27.5C 66.1667,27.5 64.8333,27.5 63.5,27.5C 63.5,26.1667 63.5,24.8333 63.5,23.5C 64.8333,23.5 66.1667,23.5 67.5,23.5C 68.8333,23.5 70.1667,23.5 71.5,23.5C 71.5,22.1667 71.5,20.8333 71.5,19.5C 72.8333,19.5 74.1667,19.5 75.5,19.5C 75.5,18.1667 75.5,16.8333 75.5,15.5C 76.8333,15.5 78.1667,15.5 79.5,15.5C 80.8333,15.5 82.1667,15.5 83.5,15.5C 83.5,14.1667 83.5,12.8333 83.5,11.5 Z"/></g>
<g><path style="opacity:1" fill="#212034" d="M 91.5,11.5 C 94.1667,11.5 96.8333,11.5 99.5,11.5C 99.5,12.8333 99.5,14.1667 99.5,15.5C 98.1667,15.5 96.8333,15.5 95.5,15.5C 94.1667,15.5 92.8333,15.5 91.5,15.5C 91.5,14.1667 91.5,12.8333 91.5,11.5 Z"/></g>
<g><path style="opacity:1" fill="#212034" d="M 67.5,15.5 C 67.5,16.8333 67.5,18.1667 67.5,19.5C 67.5,20.8333 67.5,22.1667 67.5,23.5C 66.1667,23.5 64.8333,23.5 63.5,23.5C 63.5,20.8333 63.5,18.1667 63.5,15.5C 64.8333,15.5 66.1667,15.5 67.5,15.5 Z"/></g>
<g><path style="opacity:1" fill="#4a692e" d="M 67.5,15.5 C 68.8333,15.5 70.1667,15.5 71.5,15.5C 71.5,16.8333 71.5,18.1667 71.5,19.5C 70.1667,19.5 68.8333,19.5 67.5,19.5C 67.5,18.1667 67.5,16.8333 67.5,15.5 Z"/></g>
<g><path style="opacity:1" fill="#69be2f" d="M 71.5,15.5 C 72.8333,15.5 74.1667,15.5 75.5,15.5C 75.5,16.8333 75.5,18.1667 75.5,19.5C 74.1667,19.5 72.8333,19.5 71.5,19.5C 71.5,18.1667 71.5,16.8333 71.5,15.5 Z"/></g>
<g><path style="opacity:1" fill="#69be2f" d="M 83.5,15.5 C 84.8333,15.5 86.1667,15.5 87.5,15.5C 87.5,16.8333 87.5,18.1667 87.5,19.5C 86.1667,19.5 84.8333,19.5 83.5,19.5C 83.5,18.1667 83.5,16.8333 83.5,15.5 Z"/></g>
<g><path style="opacity:1" fill="#69be2f" d="M 95.5,15.5 C 96.8333,15.5 98.1667,15.5 99.5,15.5C 99.5,16.8333 99.5,18.1667 99.5,19.5C 98.1667,19.5 96.8333,19.5 95.5,19.5C 95.5,18.1667 95.5,16.8333 95.5,15.5 Z"/></g>
<g><path style="opacity:1" fill="#212034" d="M 99.5,15.5 C 100.833,15.5 102.167,15.5 103.5,15.5C 103.5,16.8333 103.5,18.1667 103.5,19.5C 102.167,19.5 100.833,19.5 99.5,19.5C 99.5,18.1667 99.5,16.8333 99.5,15.5 Z"/></g>
<g><path style="opacity:1" fill="#69be2f" d="M 67.5,19.5 C 68.8333,19.5 70.1667,19.5 71.5,19.5C 71.5,20.8333 71.5,22.1667 71.5,23.5C 70.1667,23.5 68.8333,23.5 67.5,23.5C 67.5,22.1667 67.5,20.8333 67.5,19.5 Z"/></g>
<g><path style="opacity:1" fill="#69be2f" d="M 95.5,19.5 C 95.5,20.8333 95.5,22.1667 95.5,23.5C 94.1667,23.5 92.8333,23.5 91.5,23.5C 91.5,22.1667 91.5,20.8333 91.5,19.5C 92.8333,19.5 94.1667,19.5 95.5,19.5 Z"/></g>
<g><path style="opacity:1" fill="#212034" d="M 103.5,19.5 C 104.833,19.5 106.167,19.5 107.5,19.5C 107.5,20.8333 107.5,22.1667 107.5,23.5C 106.167,23.5 104.833,23.5 103.5,23.5C 103.5,22.1667 103.5,20.8333 103.5,19.5 Z"/></g>
<g><path style="opacity:1" fill="#212034" d="M 63.5,23.5 C 63.5,24.8333 63.5,26.1667 63.5,27.5C 63.5,28.8333 63.5,30.1667 63.5,31.5C 62.1667,31.5 60.8333,31.5 59.5,31.5C 59.5,28.8333 59.5,26.1667 59.5,23.5C 60.8333,23.5 62.1667,23.5 63.5,23.5 Z"/></g>
<g><path style="opacity:1" fill="#69be2f" d="M 103.5,23.5 C 104.833,23.5 106.167,23.5 107.5,23.5C 107.5,24.8333 107.5,26.1667 107.5,27.5C 106.167,27.5 104.833,27.5 103.5,27.5C 103.5,26.1667 103.5,24.8333 103.5,23.5 Z"/></g>
<g><path style="opacity:1" fill="#212034" d="M 107.5,23.5 C 108.833,23.5 110.167,23.5 111.5,23.5C 111.5,26.1667 111.5,28.8333 111.5,31.5C 110.167,31.5 108.833,31.5 107.5,31.5C 107.5,30.1667 107.5,28.8333 107.5,27.5C 107.5,26.1667 107.5,24.8333 107.5,23.5 Z"/></g>
<g><path style="opacity:1" fill="#69be2f" d="M 63.5,27.5 C 64.8333,27.5 66.1667,27.5 67.5,27.5C 67.5,28.8333 67.5,30.1667 67.5,31.5C 66.1667,31.5 64.8333,31.5 63.5,31.5C 63.5,30.1667 63.5,28.8333 63.5,27.5 Z"/></g>
<g><path style="opacity:1" fill="#69be2f" d="M 103.5,27.5 C 103.5,28.8333 103.5,30.1667 103.5,31.5C 100.833,31.5 98.1667,31.5 95.5,31.5C 95.5,30.1667 95.5,28.8333 95.5,27.5C 98.1667,27.5 100.833,27.5 103.5,27.5 Z"/></g>
<g><path style="opacity:1" fill="#4a692e" d="M 103.5,27.5 C 104.833,27.5 106.167,27.5 107.5,27.5C 107.5,28.8333 107.5,30.1667 107.5,31.5C 106.167,31.5 104.833,31.5 103.5,31.5C 103.5,30.1667 103.5,28.8333 103.5,27.5 Z"/></g>
<g><path style="opacity:1" fill="#212034" d="M 63.5,31.5 C 64.8333,31.5 66.1667,31.5 67.5,31.5C 67.5,32.8333 67.5,34.1667 67.5,35.5C 67.5,36.8333 67.5,38.1667 67.5,39.5C 66.1667,39.5 64.8333,39.5 63.5,39.5C 63.5,36.8333 63.5,34.1667 63.5,31.5 Z"/></g>
<g><path style="opacity:1" fill="#69be2f" d="M 75.5,35.5 C 74.1667,35.5 72.8333,35.5 71.5,35.5C 71.5,34.1667 71.5,32.8333 71.5,31.5C 72.8333,31.5 74.1667,31.5 75.5,31.5C 75.5,32.8333 75.5,34.1667 75.5,35.5 Z"/></g>
<g><path style="opacity:1" fill="#212034" d="M 103.5,31.5 C 104.833,31.5 106.167,31.5 107.5,31.5C 107.5,32.8333 107.5,34.1667 107.5,35.5C 106.167,35.5 104.833,35.5 103.5,35.5C 103.5,34.1667 103.5,32.8333 103.5,31.5 Z"/></g>
<g><path style="opacity:1" fill="#69be2f" d="M 67.5,35.5 C 68.8333,35.5 70.1667,35.5 71.5,35.5C 71.5,36.8333 71.5,38.1667 71.5,39.5C 70.1667,39.5 68.8333,39.5 67.5,39.5C 67.5,38.1667 67.5,36.8333 67.5,35.5 Z"/></g>
<g><path style="opacity:1" fill="#4a692e" d="M 71.5,35.5 C 72.8333,35.5 74.1667,35.5 75.5,35.5C 75.5,36.8333 75.5,38.1667 75.5,39.5C 74.1667,39.5 72.8333,39.5 71.5,39.5C 71.5,38.1667 71.5,36.8333 71.5,35.5 Z"/></g>
<g><path style="opacity:1" fill="#69be2f" d="M 75.5,35.5 C 76.8333,35.5 78.1667,35.5 79.5,35.5C 79.5,36.8333 79.5,38.1667 79.5,39.5C 78.1667,39.5 76.8333,39.5 75.5,39.5C 75.5,38.1667 75.5,36.8333 75.5,35.5 Z"/></g>
<g><path style="opacity:1" fill="#69be2f" d="M 91.5,39.5 C 90.1667,39.5 88.8333,39.5 87.5,39.5C 87.5,38.1667 87.5,36.8333 87.5,35.5C 88.8333,35.5 90.1667,35.5 91.5,35.5C 91.5,36.8333 91.5,38.1667 91.5,39.5 Z"/></g>
<g><path style="opacity:1" fill="#69be2f" d="M 103.5,35.5 C 103.5,36.8333 103.5,38.1667 103.5,39.5C 102.167,39.5 100.833,39.5 99.5,39.5C 99.5,38.1667 99.5,36.8333 99.5,35.5C 100.833,35.5 102.167,35.5 103.5,35.5 Z"/></g>
<g><path style="opacity:1" fill="#4a692e" d="M 103.5,35.5 C 104.833,35.5 106.167,35.5 107.5,35.5C 107.5,36.8333 107.5,38.1667 107.5,39.5C 106.167,39.5 104.833,39.5 103.5,39.5C 103.5,38.1667 103.5,36.8333 103.5,35.5 Z"/></g>
<g><path style="opacity:1" fill="#212034" d="M 107.5,35.5 C 108.833,35.5 110.167,35.5 111.5,35.5C 111.5,36.8333 111.5,38.1667 111.5,39.5C 110.167,39.5 108.833,39.5 107.5,39.5C 107.5,38.1667 107.5,36.8333 107.5,35.5 Z"/></g>
<g><path style="opacity:1" fill="#212034" d="M 67.5,39.5 C 68.8333,39.5 70.1667,39.5 71.5,39.5C 72.8333,39.5 74.1667,39.5 75.5,39.5C 75.5,40.8333 75.5,42.1667 75.5,43.5C 72.8333,43.5 70.1667,43.5 67.5,43.5C 67.5,42.1667 67.5,40.8333 67.5,39.5 Z"/></g>
<g><path style="opacity:1" fill="#4a692e" d="M 75.5,39.5 C 76.8333,39.5 78.1667,39.5 79.5,39.5C 79.5,40.8333 79.5,42.1667 79.5,43.5C 78.1667,43.5 76.8333,43.5 75.5,43.5C 75.5,42.1667 75.5,40.8333 75.5,39.5 Z"/></g>
<g><path style="opacity:1" fill="#212034" d="M 79.5,39.5 C 80.8333,39.5 82.1667,39.5 83.5,39.5C 83.5,40.8333 83.5,42.1667 83.5,43.5C 83.5,44.8333 83.5,46.1667 83.5,47.5C 83.5,50.1667 83.5,52.8333 83.5,55.5C 80.8333,55.5 78.1667,55.5 75.5,55.5C 75.5,56.8333 75.5,58.1667 75.5,59.5C 74.1667,59.5 72.8333,59.5 71.5,59.5C 71.5,58.1667 71.5,56.8333 71.5,55.5C 68.8333,55.5 66.1667,55.5 63.5,55.5C 63.5,54.1667 63.5,52.8333 63.5,51.5C 68.8333,51.5 74.1667,51.5 79.5,51.5C 79.5,50.1667 79.5,48.8333 79.5,47.5C 78.1667,47.5 76.8333,47.5 75.5,47.5C 75.5,46.1667 75.5,44.8333 75.5,43.5C 76.8333,43.5 78.1667,43.5 79.5,43.5C 79.5,42.1667 79.5,40.8333 79.5,39.5 Z"/></g>
<g><path style="opacity:1" fill="#69be2f" d="M 91.5,39.5 C 92.8333,39.5 94.1667,39.5 95.5,39.5C 95.5,40.8333 95.5,42.1667 95.5,43.5C 94.1667,43.5 92.8333,43.5 91.5,43.5C 91.5,42.1667 91.5,40.8333 91.5,39.5 Z"/></g>
<g><path style="opacity:1" fill="#212034" d="M 95.5,39.5 C 96.8333,39.5 98.1667,39.5 99.5,39.5C 100.833,39.5 102.167,39.5 103.5,39.5C 104.833,39.5 106.167,39.5 107.5,39.5C 107.5,40.8333 107.5,42.1667 107.5,43.5C 103.5,43.5 99.5,43.5 95.5,43.5C 95.5,42.1667 95.5,40.8333 95.5,39.5 Z"/></g>
<g><path style="opacity:1" fill="#69be2f" d="M 83.5,43.5 C 84.8333,43.5 86.1667,43.5 87.5,43.5C 87.5,44.8333 87.5,46.1667 87.5,47.5C 86.1667,47.5 84.8333,47.5 83.5,47.5C 83.5,46.1667 83.5,44.8333 83.5,43.5 Z"/></g>
<g><path style="opacity:1" fill="#212034" d="M 91.5,43.5 C 92.8333,43.5 94.1667,43.5 95.5,43.5C 95.5,46.1667 95.5,48.8333 95.5,51.5C 100.833,51.5 106.167,51.5 111.5,51.5C 111.5,52.8333 111.5,54.1667 111.5,55.5C 114.167,55.5 116.833,55.5 119.5,55.5C 119.5,58.1667 119.5,60.8333 119.5,63.5C 118.167,63.5 116.833,63.5 115.5,63.5C 115.5,62.1667 115.5,60.8333 115.5,59.5C 114.167,59.5 112.833,59.5 111.5,59.5C 110.167,59.5 108.833,59.5 107.5,59.5C 107.5,58.1667 107.5,56.8333 107.5,55.5C 104.833,55.5 102.167,55.5 99.5,55.5C 98.1667,55.5 96.8333,55.5 95.5,55.5C 94.1667,55.5 92.8333,55.5 91.5,55.5C 91.5,51.5 91.5,47.5 91.5,43.5 Z"/></g>
<g><path style="opacity:1" fill="#212034" d="M 63.5,51.5 C 62.1667,51.5 60.8333,51.5 59.5,51.5C 56.8333,51.5 54.1667,51.5 51.5,51.5C 50.1667,51.5 48.8333,51.5 47.5,51.5C 46.1667,51.5 44.8333,51.5 43.5,51.5C 42.1667,51.5 40.8333,51.5 39.5,51.5C 38.1667,51.5 36.8333,51.5 35.5,51.5C 32.8333,51.5 30.1667,51.5 27.5,51.5C 27.5,50.1667 27.5,48.8333 27.5,47.5C 39.5,47.5 51.5,47.5 63.5,47.5C 63.5,48.8333 63.5,50.1667 63.5,51.5 Z"/></g>
<g><path style="opacity:1" fill="#734234" d="M 87.5,43.5 C 88.8333,43.5 90.1667,43.5 91.5,43.5C 91.5,47.5 91.5,51.5 91.5,55.5C 90.1667,55.5 88.8333,55.5 87.5,55.5C 86.1667,55.5 84.8333,55.5 83.5,55.5C 83.5,52.8333 83.5,50.1667 83.5,47.5C 84.8333,47.5 86.1667,47.5 87.5,47.5C 87.5,46.1667 87.5,44.8333 87.5,43.5 Z"/></g>
<g><path style="opacity:1" fill="#212034" d="M 27.5,51.5 C 27.5,52.8333 27.5,54.1667 27.5,55.5C 26.1667,55.5 24.8333,55.5 23.5,55.5C 22.1667,55.5 20.8333,55.5 19.5,55.5C 18.1667,55.5 16.8333,55.5 15.5,55.5C 15.5,56.8333 15.5,58.1667 15.5,59.5C 14.1667,59.5 12.8333,59.5 11.5,59.5C 11.5,60.8333 11.5,62.1667 11.5,63.5C 10.1667,63.5 8.83333,63.5 7.5,63.5C 7.5,60.8333 7.5,58.1667 7.5,55.5C 8.83333,55.5 10.1667,55.5 11.5,55.5C 11.5,54.1667 11.5,52.8333 11.5,51.5C 16.8333,51.5 22.1667,51.5 27.5,51.5 Z"/></g>
<g><path style="opacity:1" fill="#4a692e" d="M 27.5,51.5 C 30.1667,51.5 32.8333,51.5 35.5,51.5C 35.5,52.8333 35.5,54.1667 35.5,55.5C 35.5,56.8333 35.5,58.1667 35.5,59.5C 34.1667,59.5 32.8333,59.5 31.5,59.5C 31.5,58.1667 31.5,56.8333 31.5,55.5C 30.1667,55.5 28.8333,55.5 27.5,55.5C 27.5,54.1667 27.5,52.8333 27.5,51.5 Z"/></g>
<g><path style="opacity:1" fill="#69be2f" d="M 35.5,51.5 C 36.8333,51.5 38.1667,51.5 39.5,51.5C 39.5,52.8333 39.5,54.1667 39.5,55.5C 38.1667,55.5 36.8333,55.5 35.5,55.5C 35.5,54.1667 35.5,52.8333 35.5,51.5 Z"/></g>
<g><path style="opacity:1" fill="#4a692e" d="M 39.5,51.5 C 40.8333,51.5 42.1667,51.5 43.5,51.5C 43.5,52.8333 43.5,54.1667 43.5,55.5C 42.1667,55.5 40.8333,55.5 39.5,55.5C 39.5,54.1667 39.5,52.8333 39.5,51.5 Z"/></g>
<g><path style="opacity:1" fill="#5fcde3" d="M 47.5,51.5 C 48.8333,51.5 50.1667,51.5 51.5,51.5C 51.5,52.8333 51.5,54.1667 51.5,55.5C 50.1667,55.5 48.8333,55.5 47.5,55.5C 47.5,54.1667 47.5,52.8333 47.5,51.5 Z"/></g>
<g><path style="opacity:1" fill="#5e7cea" d="M 51.5,51.5 C 54.1667,51.5 56.8333,51.5 59.5,51.5C 59.5,52.8333 59.5,54.1667 59.5,55.5C 56.8333,55.5 54.1667,55.5 51.5,55.5C 51.5,54.1667 51.5,52.8333 51.5,51.5 Z"/></g>
<g><path style="opacity:1" fill="#69be2f" d="M 59.5,51.5 C 60.8333,51.5 62.1667,51.5 63.5,51.5C 63.5,52.8333 63.5,54.1667 63.5,55.5C 62.1667,55.5 60.8333,55.5 59.5,55.5C 59.5,54.1667 59.5,52.8333 59.5,51.5 Z"/></g>
<g><path style="opacity:1" fill="#4a692e" d="M 19.5,55.5 C 19.5,56.8333 19.5,58.1667 19.5,59.5C 18.1667,59.5 16.8333,59.5 15.5,59.5C 15.5,58.1667 15.5,56.8333 15.5,55.5C 16.8333,55.5 18.1667,55.5 19.5,55.5 Z"/></g>
<g><path style="opacity:1" fill="#69be2f" d="M 19.5,55.5 C 20.8333,55.5 22.1667,55.5 23.5,55.5C 23.5,56.8333 23.5,58.1667 23.5,59.5C 22.1667,59.5 20.8333,59.5 19.5,59.5C 19.5,58.1667 19.5,56.8333 19.5,55.5 Z"/></g>
<g><path style="opacity:1" fill="#4a692e" d="M 23.5,55.5 C 24.8333,55.5 26.1667,55.5 27.5,55.5C 27.5,56.8333 27.5,58.1667 27.5,59.5C 26.1667,59.5 24.8333,59.5 23.5,59.5C 23.5,58.1667 23.5,56.8333 23.5,55.5 Z"/></g>
<g><path style="opacity:1" fill="#69be2f" d="M 27.5,55.5 C 28.8333,55.5 30.1667,55.5 31.5,55.5C 31.5,56.8333 31.5,58.1667 31.5,59.5C 30.1667,59.5 28.8333,59.5 27.5,59.5C 27.5,58.1667 27.5,56.8333 27.5,55.5 Z"/></g>
<g><path style="opacity:1" fill="#5f84ef" d="M 43.5,51.5 C 44.8333,51.5 46.1667,51.5 47.5,51.5C 47.5,52.8333 47.5,54.1667 47.5,55.5C 48.8333,55.5 50.1667,55.5 51.5,55.5C 51.5,58.1667 51.5,60.8333 51.5,63.5C 50.1667,63.5 48.8333,63.5 47.5,63.5C 47.5,62.1667 47.5,60.8333 47.5,59.5C 44.8333,59.5 42.1667,59.5 39.5,59.5C 39.5,58.1667 39.5,56.8333 39.5,55.5C 40.8333,55.5 42.1667,55.5 43.5,55.5C 43.5,54.1667 43.5,52.8333 43.5,51.5 Z"/></g>
<g><path style="opacity:1" fill="#5fcde3" d="M 51.5,55.5 C 54.1667,55.5 56.8333,55.5 59.5,55.5C 59.5,56.8333 59.5,58.1667 59.5,59.5C 58.1667,59.5 56.8333,59.5 55.5,59.5C 55.5,60.8333 55.5,62.1667 55.5,63.5C 54.1667,63.5 52.8333,63.5 51.5,63.5C 51.5,60.8333 51.5,58.1667 51.5,55.5 Z"/></g>
<g><path style="opacity:1" fill="#6293f9" d="M 59.5,55.5 C 60.8333,55.5 62.1667,55.5 63.5,55.5C 66.1667,55.5 68.8333,55.5 71.5,55.5C 71.5,56.8333 71.5,58.1667 71.5,59.5C 68.8333,59.5 66.1667,59.5 63.5,59.5C 63.5,60.8333 63.5,62.1667 63.5,63.5C 60.8333,63.5 58.1667,63.5 55.5,63.5C 55.5,62.1667 55.5,60.8333 55.5,59.5C 56.8333,59.5 58.1667,59.5 59.5,59.5C 59.5,58.1667 59.5,56.8333 59.5,55.5 Z"/></g>
<g><path style="opacity:1" fill="#69be2f" d="M 83.5,55.5 C 84.8333,55.5 86.1667,55.5 87.5,55.5C 87.5,56.8333 87.5,58.1667 87.5,59.5C 84.8333,59.5 82.1667,59.5 79.5,59.5C 79.5,60.8333 79.5,62.1667 79.5,63.5C 78.1667,63.5 76.8333,63.5 75.5,63.5C 74.1667,63.5 72.8333,63.5 71.5,63.5C 71.5,62.1667 71.5,60.8333 71.5,59.5C 72.8333,59.5 74.1667,59.5 75.5,59.5C 75.5,58.1667 75.5,56.8333 75.5,55.5C 78.1667,55.5 80.8333,55.5 83.5,55.5 Z"/></g>
<g><path style="opacity:1" fill="#4a692e" d="M 87.5,55.5 C 88.8333,55.5 90.1667,55.5 91.5,55.5C 91.5,56.8333 91.5,58.1667 91.5,59.5C 90.1667,59.5 88.8333,59.5 87.5,59.5C 87.5,58.1667 87.5,56.8333 87.5,55.5 Z"/></g>
<g><path style="opacity:1" fill="#69be2f" d="M 91.5,55.5 C 92.8333,55.5 94.1667,55.5 95.5,55.5C 95.5,56.8333 95.5,58.1667 95.5,59.5C 94.1667,59.5 92.8333,59.5 91.5,59.5C 91.5,58.1667 91.5,56.8333 91.5,55.5 Z"/></g>
<g><path style="opacity:1" fill="#4a692e" d="M 95.5,55.5 C 96.8333,55.5 98.1667,55.5 99.5,55.5C 99.5,56.8333 99.5,58.1667 99.5,59.5C 98.1667,59.5 96.8333,59.5 95.5,59.5C 95.5,58.1667 95.5,56.8333 95.5,55.5 Z"/></g>
<g><path style="opacity:1" fill="#69be2f" d="M 99.5,55.5 C 102.167,55.5 104.833,55.5 107.5,55.5C 107.5,56.8333 107.5,58.1667 107.5,59.5C 106.167,59.5 104.833,59.5 103.5,59.5C 102.167,59.5 100.833,59.5 99.5,59.5C 99.5,58.1667 99.5,56.8333 99.5,55.5 Z"/></g>
<g><path style="opacity:1" fill="#4a692e" d="M 15.5,59.5 C 15.5,60.8333 15.5,62.1667 15.5,63.5C 14.1667,63.5 12.8333,63.5 11.5,63.5C 11.5,62.1667 11.5,60.8333 11.5,59.5C 12.8333,59.5 14.1667,59.5 15.5,59.5 Z"/></g>
<g><path style="opacity:1" fill="#69be2f" d="M 23.5,59.5 C 24.8333,59.5 26.1667,59.5 27.5,59.5C 27.5,60.8333 27.5,62.1667 27.5,63.5C 26.1667,63.5 24.8333,63.5 23.5,63.5C 23.5,62.1667 23.5,60.8333 23.5,59.5 Z"/></g>
<g><path style="opacity:1" fill="#4a692e" d="M 27.5,59.5 C 28.8333,59.5 30.1667,59.5 31.5,59.5C 31.5,60.8333 31.5,62.1667 31.5,63.5C 30.1667,63.5 28.8333,63.5 27.5,63.5C 27.5,62.1667 27.5,60.8333 27.5,59.5 Z"/></g>
<g><path style="opacity:1" fill="#69be2f" d="M 31.5,59.5 C 32.8333,59.5 34.1667,59.5 35.5,59.5C 35.5,60.8333 35.5,62.1667 35.5,63.5C 34.1667,63.5 32.8333,63.5 31.5,63.5C 31.5,62.1667 31.5,60.8333 31.5,59.5 Z"/></g>
<g><path style="opacity:1" fill="#322533" d="M 35.5,55.5 C 36.8333,55.5 38.1667,55.5 39.5,55.5C 39.5,56.8333 39.5,58.1667 39.5,59.5C 42.1667,59.5 44.8333,59.5 47.5,59.5C 47.5,60.8333 47.5,62.1667 47.5,63.5C 44.8333,63.5 42.1667,63.5 39.5,63.5C 38.1667,63.5 36.8333,63.5 35.5,63.5C 35.5,62.1667 35.5,60.8333 35.5,59.5C 35.5,58.1667 35.5,56.8333 35.5,55.5 Z"/></g>
<g><path style="opacity:1" fill="#212034" d="M 71.5,59.5 C 71.5,60.8333 71.5,62.1667 71.5,63.5C 68.8333,63.5 66.1667,63.5 63.5,63.5C 63.5,62.1667 63.5,60.8333 63.5,59.5C 66.1667,59.5 68.8333,59.5 71.5,59.5 Z"/></g>
<g><path style="opacity:1" fill="#69be2f" d="M 107.5,59.5 C 108.833,59.5 110.167,59.5 111.5,59.5C 111.5,60.8333 111.5,62.1667 111.5,63.5C 110.167,63.5 108.833,63.5 107.5,63.5C 107.5,62.1667 107.5,60.8333 107.5,59.5 Z"/></g>
<g><path style="opacity:1" fill="#4a692e" d="M 111.5,59.5 C 112.833,59.5 114.167,59.5 115.5,59.5C 115.5,60.8333 115.5,62.1667 115.5,63.5C 114.167,63.5 112.833,63.5 111.5,63.5C 111.5,62.1667 111.5,60.8333 111.5,59.5 Z"/></g>
<g><path style="opacity:1" fill="#5b3633" d="M 15.5,59.5 C 16.8333,59.5 18.1667,59.5 19.5,59.5C 20.8333,59.5 22.1667,59.5 23.5,59.5C 23.5,60.8333 23.5,62.1667 23.5,63.5C 22.1667,63.5 20.8333,63.5 19.5,63.5C 19.5,64.8333 19.5,66.1667 19.5,67.5C 18.1667,67.5 16.8333,67.5 15.5,67.5C 14.1667,67.5 12.8333,67.5 11.5,67.5C 11.5,66.1667 11.5,64.8333 11.5,63.5C 12.8333,63.5 14.1667,63.5 15.5,63.5C 15.5,62.1667 15.5,60.8333 15.5,59.5 Z"/></g>
<g><path style="opacity:1" fill="#6e3e33" d="M 23.5,63.5 C 24.8333,63.5 26.1667,63.5 27.5,63.5C 28.8333,63.5 30.1667,63.5 31.5,63.5C 32.8333,63.5 34.1667,63.5 35.5,63.5C 35.5,64.8333 35.5,66.1667 35.5,67.5C 32.8333,67.5 30.1667,67.5 27.5,67.5C 27.5,68.8333 27.5,70.1667 27.5,71.5C 26.1667,71.5 24.8333,71.5 23.5,71.5C 23.5,68.8333 23.5,66.1667 23.5,63.5 Z"/></g>
<g><path style="opacity:1" fill="#69be2f" d="M 35.5,63.5 C 36.8333,63.5 38.1667,63.5 39.5,63.5C 39.5,64.8333 39.5,66.1667 39.5,67.5C 38.1667,67.5 36.8333,67.5 35.5,67.5C 35.5,66.1667 35.5,64.8333 35.5,63.5 Z"/></g>
<g><path style="opacity:1" fill="#814c37" d="M 39.5,63.5 C 42.1667,63.5 44.8333,63.5 47.5,63.5C 47.5,64.8333 47.5,66.1667 47.5,67.5C 44.8333,67.5 42.1667,67.5 39.5,67.5C 39.5,66.1667 39.5,64.8333 39.5,63.5 Z"/></g>
<g><path style="opacity:1" fill="#212034" d="M 47.5,63.5 C 48.8333,63.5 50.1667,63.5 51.5,63.5C 52.8333,63.5 54.1667,63.5 55.5,63.5C 58.1667,63.5 60.8333,63.5 63.5,63.5C 63.5,64.8333 63.5,66.1667 63.5,67.5C 58.1667,67.5 52.8333,67.5 47.5,67.5C 47.5,66.1667 47.5,64.8333 47.5,63.5 Z"/></g>
<g><path style="opacity:1" fill="#4a692e" d="M 75.5,63.5 C 76.8333,63.5 78.1667,63.5 79.5,63.5C 79.5,64.8333 79.5,66.1667 79.5,67.5C 78.1667,67.5 76.8333,67.5 75.5,67.5C 75.5,66.1667 75.5,64.8333 75.5,63.5 Z"/></g>
<g><path style="opacity:1" fill="#764637" d="M 87.5,59.5 C 87.5,60.8333 87.5,62.1667 87.5,63.5C 88.8333,63.5 90.1667,63.5 91.5,63.5C 91.5,62.1667 91.5,60.8333 91.5,59.5C 92.8333,59.5 94.1667,59.5 95.5,59.5C 96.8333,59.5 98.1667,59.5 99.5,59.5C 99.5,60.8333 99.5,62.1667 99.5,63.5C 100.833,63.5 102.167,63.5 103.5,63.5C 103.5,62.1667 103.5,60.8333 103.5,59.5C 104.833,59.5 106.167,59.5 107.5,59.5C 107.5,60.8333 107.5,62.1667 107.5,63.5C 108.833,63.5 110.167,63.5 111.5,63.5C 111.5,64.8333 111.5,66.1667 111.5,67.5C 110.167,67.5 108.833,67.5 107.5,67.5C 107.5,68.8333 107.5,70.1667 107.5,71.5C 106.167,71.5 104.833,71.5 103.5,71.5C 102.167,71.5 100.833,71.5 99.5,71.5C 99.5,70.1667 99.5,68.8333 99.5,67.5C 94.1667,67.5 88.8333,67.5 83.5,67.5C 83.5,68.8333 83.5,70.1667 83.5,71.5C 82.1667,71.5 80.8333,71.5 79.5,71.5C 78.1667,71.5 76.8333,71.5 75.5,71.5C 75.5,70.1667 75.5,68.8333 75.5,67.5C 76.8333,67.5 78.1667,67.5 79.5,67.5C 79.5,66.1667 79.5,64.8333 79.5,63.5C 79.5,62.1667 79.5,60.8333 79.5,59.5C 82.1667,59.5 84.8333,59.5 87.5,59.5 Z"/></g>
<g><path style="opacity:1" fill="#4a692e" d="M 99.5,59.5 C 100.833,59.5 102.167,59.5 103.5,59.5C 103.5,60.8333 103.5,62.1667 103.5,63.5C 102.167,63.5 100.833,63.5 99.5,63.5C 99.5,62.1667 99.5,60.8333 99.5,59.5 Z"/></g>
<g><path style="opacity:1" fill="#69be2f" d="M 87.5,59.5 C 88.8333,59.5 90.1667,59.5 91.5,59.5C 91.5,60.8333 91.5,62.1667 91.5,63.5C 90.1667,63.5 88.8333,63.5 87.5,63.5C 87.5,62.1667 87.5,60.8333 87.5,59.5 Z"/></g>
<g><path style="opacity:1" fill="#212034" d="M 111.5,63.5 C 112.833,63.5 114.167,63.5 115.5,63.5C 115.5,64.8333 115.5,66.1667 115.5,67.5C 114.167,67.5 112.833,67.5 111.5,67.5C 111.5,66.1667 111.5,64.8333 111.5,63.5 Z"/></g>
<g><path style="opacity:1" fill="#212034" d="M 15.5,67.5 C 16.8333,67.5 18.1667,67.5 19.5,67.5C 19.5,70.1667 19.5,72.8333 19.5,75.5C 18.1667,75.5 16.8333,75.5 15.5,75.5C 15.5,72.8333 15.5,70.1667 15.5,67.5 Z"/></g>
<g><path style="opacity:1" fill="#7b4736" d="M 63.5,63.5 C 66.1667,63.5 68.8333,63.5 71.5,63.5C 72.8333,63.5 74.1667,63.5 75.5,63.5C 75.5,64.8333 75.5,66.1667 75.5,67.5C 72.8333,67.5 70.1667,67.5 67.5,67.5C 67.5,68.8333 67.5,70.1667 67.5,71.5C 62.1667,71.5 56.8333,71.5 51.5,71.5C 51.5,72.8333 51.5,74.1667 51.5,75.5C 50.1667,75.5 48.8333,75.5 47.5,75.5C 47.5,72.8333 47.5,70.1667 47.5,67.5C 52.8333,67.5 58.1667,67.5 63.5,67.5C 63.5,66.1667 63.5,64.8333 63.5,63.5 Z"/></g>
<g><path style="opacity:1" fill="#353b3d" d="M 99.5,71.5 C 99.5,72.8333 99.5,74.1667 99.5,75.5C 98.1667,75.5 96.8333,75.5 95.5,75.5C 95.5,76.8333 95.5,78.1667 95.5,79.5C 98.1667,79.5 100.833,79.5 103.5,79.5C 103.5,82.1667 103.5,84.8333 103.5,87.5C 102.167,87.5 100.833,87.5 99.5,87.5C 99.5,90.1667 99.5,92.8333 99.5,95.5C 98.1667,95.5 96.8333,95.5 95.5,95.5C 95.5,91.5 95.5,87.5 95.5,83.5C 94.1667,83.5 92.8333,83.5 91.5,83.5C 91.5,82.1667 91.5,80.8333 91.5,79.5C 90.1667,79.5 88.8333,79.5 87.5,79.5C 87.5,78.1667 87.5,76.8333 87.5,75.5C 84.8333,75.5 82.1667,75.5 79.5,75.5C 79.5,74.1667 79.5,72.8333 79.5,71.5C 80.8333,71.5 82.1667,71.5 83.5,71.5C 83.5,70.1667 83.5,68.8333 83.5,67.5C 88.8333,67.5 94.1667,67.5 99.5,67.5C 99.5,68.8333 99.5,70.1667 99.5,71.5 Z"/></g>
<g><path style="opacity:1" fill="#212034" d="M 111.5,67.5 C 111.5,68.8333 111.5,70.1667 111.5,71.5C 110.167,71.5 108.833,71.5 107.5,71.5C 107.5,70.1667 107.5,68.8333 107.5,67.5C 108.833,67.5 110.167,67.5 111.5,67.5 Z"/></g>
<g><path style="opacity:1" fill="#757072" d="M 23.5,63.5 C 23.5,66.1667 23.5,68.8333 23.5,71.5C 24.8333,71.5 26.1667,71.5 27.5,71.5C 27.5,70.1667 27.5,68.8333 27.5,67.5C 30.1667,67.5 32.8333,67.5 35.5,67.5C 36.8333,67.5 38.1667,67.5 39.5,67.5C 42.1667,67.5 44.8333,67.5 47.5,67.5C 47.5,70.1667 47.5,72.8333 47.5,75.5C 46.1667,75.5 44.8333,75.5 43.5,75.5C 43.5,76.8333 43.5,78.1667 43.5,79.5C 42.1667,79.5 40.8333,79.5 39.5,79.5C 39.5,80.8333 39.5,82.1667 39.5,83.5C 38.1667,83.5 36.8333,83.5 35.5,83.5C 35.5,84.8333 35.5,86.1667 35.5,87.5C 32.8333,87.5 30.1667,87.5 27.5,87.5C 27.5,86.1667 27.5,84.8333 27.5,83.5C 26.1667,83.5 24.8333,83.5 23.5,83.5C 23.5,80.8333 23.5,78.1667 23.5,75.5C 22.1667,75.5 20.8333,75.5 19.5,75.5C 19.5,72.8333 19.5,70.1667 19.5,67.5C 19.5,66.1667 19.5,64.8333 19.5,63.5C 20.8333,63.5 22.1667,63.5 23.5,63.5 Z"/></g>
<g><path style="opacity:1" fill="#686a69" d="M 99.5,71.5 C 100.833,71.5 102.167,71.5 103.5,71.5C 103.5,74.1667 103.5,76.8333 103.5,79.5C 100.833,79.5 98.1667,79.5 95.5,79.5C 95.5,78.1667 95.5,76.8333 95.5,75.5C 96.8333,75.5 98.1667,75.5 99.5,75.5C 99.5,74.1667 99.5,72.8333 99.5,71.5 Z"/></g>
<g><path style="opacity:1" fill="#212034" d="M 103.5,71.5 C 104.833,71.5 106.167,71.5 107.5,71.5C 107.5,74.1667 107.5,76.8333 107.5,79.5C 106.167,79.5 104.833,79.5 103.5,79.5C 103.5,76.8333 103.5,74.1667 103.5,71.5 Z"/></g>
<g><path style="opacity:1" fill="#212034" d="M 19.5,75.5 C 20.8333,75.5 22.1667,75.5 23.5,75.5C 23.5,78.1667 23.5,80.8333 23.5,83.5C 22.1667,83.5 20.8333,83.5 19.5,83.5C 19.5,80.8333 19.5,78.1667 19.5,75.5 Z"/></g>
<g><path style="opacity:1" fill="#474a46" d="M 47.5,75.5 C 48.8333,75.5 50.1667,75.5 51.5,75.5C 51.5,76.8333 51.5,78.1667 51.5,79.5C 52.8333,79.5 54.1667,79.5 55.5,79.5C 55.5,82.1667 55.5,84.8333 55.5,87.5C 54.1667,87.5 52.8333,87.5 51.5,87.5C 51.5,88.8333 51.5,90.1667 51.5,91.5C 50.1667,91.5 48.8333,91.5 47.5,91.5C 47.5,90.1667 47.5,88.8333 47.5,87.5C 46.1667,87.5 44.8333,87.5 43.5,87.5C 43.5,86.1667 43.5,84.8333 43.5,83.5C 42.1667,83.5 40.8333,83.5 39.5,83.5C 39.5,82.1667 39.5,80.8333 39.5,79.5C 40.8333,79.5 42.1667,79.5 43.5,79.5C 43.5,78.1667 43.5,76.8333 43.5,75.5C 44.8333,75.5 46.1667,75.5 47.5,75.5 Z"/></g>
<g><path style="opacity:1" fill="#585754" d="M 75.5,71.5 C 76.8333,71.5 78.1667,71.5 79.5,71.5C 79.5,72.8333 79.5,74.1667 79.5,75.5C 82.1667,75.5 84.8333,75.5 87.5,75.5C 87.5,76.8333 87.5,78.1667 87.5,79.5C 87.5,82.1667 87.5,84.8333 87.5,87.5C 86.1667,87.5 84.8333,87.5 83.5,87.5C 83.5,88.8333 83.5,90.1667 83.5,91.5C 82.1667,91.5 80.8333,91.5 79.5,91.5C 79.5,90.1667 79.5,88.8333 79.5,87.5C 79.5,86.1667 79.5,84.8333 79.5,83.5C 78.1667,83.5 76.8333,83.5 75.5,83.5C 74.1667,83.5 72.8333,83.5 71.5,83.5C 71.5,84.8333 71.5,86.1667 71.5,87.5C 70.1667,87.5 68.8333,87.5 67.5,87.5C 67.5,88.8333 67.5,90.1667 67.5,91.5C 66.1667,91.5 64.8333,91.5 63.5,91.5C 63.5,88.8333 63.5,86.1667 63.5,83.5C 64.8333,83.5 66.1667,83.5 67.5,83.5C 67.5,82.1667 67.5,80.8333 67.5,79.5C 70.1667,79.5 72.8333,79.5 75.5,79.5C 75.5,78.1667 75.5,76.8333 75.5,75.5C 74.1667,75.5 72.8333,75.5 71.5,75.5C 71.5,74.1667 71.5,72.8333 71.5,71.5C 72.8333,71.5 74.1667,71.5 75.5,71.5 Z"/></g>
<g><path style="opacity:1" fill="#212034" d="M 23.5,83.5 C 24.8333,83.5 26.1667,83.5 27.5,83.5C 27.5,84.8333 27.5,86.1667 27.5,87.5C 26.1667,87.5 24.8333,87.5 23.5,87.5C 23.5,86.1667 23.5,84.8333 23.5,83.5 Z"/></g>
<g><path style="opacity:1" fill="#212034" d="M 39.5,83.5 C 40.8333,83.5 42.1667,83.5 43.5,83.5C 43.5,84.8333 43.5,86.1667 43.5,87.5C 40.8333,87.5 38.1667,87.5 35.5,87.5C 35.5,86.1667 35.5,84.8333 35.5,83.5C 36.8333,83.5 38.1667,83.5 39.5,83.5 Z"/></g>
<g><path style="opacity:1" fill="#de7125" d="M 75.5,83.5 C 76.8333,83.5 78.1667,83.5 79.5,83.5C 79.5,84.8333 79.5,86.1667 79.5,87.5C 79.5,88.8333 79.5,90.1667 79.5,91.5C 76.8333,91.5 74.1667,91.5 71.5,91.5C 71.5,90.1667 71.5,88.8333 71.5,87.5C 71.5,86.1667 71.5,84.8333 71.5,83.5C 72.8333,83.5 74.1667,83.5 75.5,83.5 Z"/></g>
<g><path style="opacity:1" fill="#ab3231" d="M 75.5,83.5 C 76.8333,83.5 78.1667,83.5 79.5,83.5C 79.5,84.8333 79.5,86.1667 79.5,87.5C 78.1667,87.5 76.8333,87.5 75.5,87.5C 75.5,86.1667 75.5,84.8333 75.5,83.5 Z"/></g>
<g><path style="opacity:1" fill="#212034" d="M 27.5,87.5 C 30.1667,87.5 32.8333,87.5 35.5,87.5C 35.5,88.8333 35.5,90.1667 35.5,91.5C 32.8333,91.5 30.1667,91.5 27.5,91.5C 27.5,90.1667 27.5,88.8333 27.5,87.5 Z"/></g>
<g><path style="opacity:1" fill="#212034" d="M 43.5,87.5 C 44.8333,87.5 46.1667,87.5 47.5,87.5C 47.5,88.8333 47.5,90.1667 47.5,91.5C 47.5,92.8333 47.5,94.1667 47.5,95.5C 46.1667,95.5 44.8333,95.5 43.5,95.5C 43.5,92.8333 43.5,90.1667 43.5,87.5 Z"/></g>
<g><path style="opacity:1" fill="#767378" d="M 75.5,67.5 C 75.5,68.8333 75.5,70.1667 75.5,71.5C 74.1667,71.5 72.8333,71.5 71.5,71.5C 71.5,72.8333 71.5,74.1667 71.5,75.5C 72.8333,75.5 74.1667,75.5 75.5,75.5C 75.5,76.8333 75.5,78.1667 75.5,79.5C 72.8333,79.5 70.1667,79.5 67.5,79.5C 67.5,80.8333 67.5,82.1667 67.5,83.5C 66.1667,83.5 64.8333,83.5 63.5,83.5C 63.5,86.1667 63.5,88.8333 63.5,91.5C 62.1667,91.5 60.8333,91.5 59.5,91.5C 59.5,92.8333 59.5,94.1667 59.5,95.5C 58.1667,95.5 56.8333,95.5 55.5,95.5C 55.5,96.8333 55.5,98.1667 55.5,99.5C 54.1667,99.5 52.8333,99.5 51.5,99.5C 51.5,98.1667 51.5,96.8333 51.5,95.5C 50.1667,95.5 48.8333,95.5 47.5,95.5C 47.5,94.1667 47.5,92.8333 47.5,91.5C 48.8333,91.5 50.1667,91.5 51.5,91.5C 51.5,90.1667 51.5,88.8333 51.5,87.5C 52.8333,87.5 54.1667,87.5 55.5,87.5C 55.5,84.8333 55.5,82.1667 55.5,79.5C 54.1667,79.5 52.8333,79.5 51.5,79.5C 51.5,78.1667 51.5,76.8333 51.5,75.5C 51.5,74.1667 51.5,72.8333 51.5,71.5C 56.8333,71.5 62.1667,71.5 67.5,71.5C 67.5,70.1667 67.5,68.8333 67.5,67.5C 70.1667,67.5 72.8333,67.5 75.5,67.5 Z"/></g>
<g><path style="opacity:1" fill="#ab3231" d="M 71.5,87.5 C 71.5,88.8333 71.5,90.1667 71.5,91.5C 70.1667,91.5 68.8333,91.5 67.5,91.5C 67.5,90.1667 67.5,88.8333 67.5,87.5C 68.8333,87.5 70.1667,87.5 71.5,87.5 Z"/></g>
<g><path style="opacity:1" fill="#777479" d="M 87.5,79.5 C 88.8333,79.5 90.1667,79.5 91.5,79.5C 91.5,80.8333 91.5,82.1667 91.5,83.5C 92.8333,83.5 94.1667,83.5 95.5,83.5C 95.5,87.5 95.5,91.5 95.5,95.5C 94.1667,95.5 92.8333,95.5 91.5,95.5C 91.5,98.1667 91.5,100.833 91.5,103.5C 90.1667,103.5 88.8333,103.5 87.5,103.5C 87.5,106.167 87.5,108.833 87.5,111.5C 86.1667,111.5 84.8333,111.5 83.5,111.5C 83.5,108.833 83.5,106.167 83.5,103.5C 83.5,102.167 83.5,100.833 83.5,99.5C 83.5,96.8333 83.5,94.1667 83.5,91.5C 83.5,90.1667 83.5,88.8333 83.5,87.5C 84.8333,87.5 86.1667,87.5 87.5,87.5C 87.5,84.8333 87.5,82.1667 87.5,79.5 Z"/></g>
<g><path style="opacity:1" fill="#212034" d="M 63.5,91.5 C 64.8333,91.5 66.1667,91.5 67.5,91.5C 67.5,92.8333 67.5,94.1667 67.5,95.5C 64.8333,95.5 62.1667,95.5 59.5,95.5C 59.5,94.1667 59.5,92.8333 59.5,91.5C 60.8333,91.5 62.1667,91.5 63.5,91.5 Z"/></g>
<g><path style="opacity:1" fill="#686a69" d="M 67.5,91.5 C 68.8333,91.5 70.1667,91.5 71.5,91.5C 71.5,92.8333 71.5,94.1667 71.5,95.5C 70.1667,95.5 68.8333,95.5 67.5,95.5C 67.5,94.1667 67.5,92.8333 67.5,91.5 Z"/></g>
<g><path style="opacity:1" fill="#ab3231" d="M 71.5,91.5 C 74.1667,91.5 76.8333,91.5 79.5,91.5C 79.5,94.1667 79.5,96.8333 79.5,99.5C 78.1667,99.5 76.8333,99.5 75.5,99.5C 75.5,98.1667 75.5,96.8333 75.5,95.5C 74.1667,95.5 72.8333,95.5 71.5,95.5C 71.5,94.1667 71.5,92.8333 71.5,91.5 Z"/></g>
<g><path style="opacity:1" fill="#de7125" d="M 79.5,91.5 C 80.8333,91.5 82.1667,91.5 83.5,91.5C 83.5,94.1667 83.5,96.8333 83.5,99.5C 82.1667,99.5 80.8333,99.5 79.5,99.5C 79.5,96.8333 79.5,94.1667 79.5,91.5 Z"/></g>
<g><path style="opacity:1" fill="#212034" d="M 47.5,95.5 C 48.8333,95.5 50.1667,95.5 51.5,95.5C 51.5,96.8333 51.5,98.1667 51.5,99.5C 50.1667,99.5 48.8333,99.5 47.5,99.5C 47.5,98.1667 47.5,96.8333 47.5,95.5 Z"/></g>
<g><path style="opacity:1" fill="#212034" d="M 59.5,95.5 C 59.5,96.8333 59.5,98.1667 59.5,99.5C 58.1667,99.5 56.8333,99.5 55.5,99.5C 55.5,98.1667 55.5,96.8333 55.5,95.5C 56.8333,95.5 58.1667,95.5 59.5,95.5 Z"/></g>
<g><path style="opacity:1" fill="#212034" d="M 95.5,95.5 C 95.5,98.1667 95.5,100.833 95.5,103.5C 94.1667,103.5 92.8333,103.5 91.5,103.5C 91.5,100.833 91.5,98.1667 91.5,95.5C 92.8333,95.5 94.1667,95.5 95.5,95.5 Z"/></g>
<g><path style="opacity:1" fill="#212034" d="M 51.5,99.5 C 52.8333,99.5 54.1667,99.5 55.5,99.5C 55.5,100.833 55.5,102.167 55.5,103.5C 54.1667,103.5 52.8333,103.5 51.5,103.5C 51.5,102.167 51.5,100.833 51.5,99.5 Z"/></g>
<g><path style="opacity:1" fill="#2e2b3a" d="M 67.5,95.5 C 68.8333,95.5 70.1667,95.5 71.5,95.5C 72.8333,95.5 74.1667,95.5 75.5,95.5C 75.5,96.8333 75.5,98.1667 75.5,99.5C 75.5,100.833 75.5,102.167 75.5,103.5C 75.5,104.833 75.5,106.167 75.5,107.5C 74.1667,107.5 72.8333,107.5 71.5,107.5C 71.5,104.833 71.5,102.167 71.5,99.5C 70.1667,99.5 68.8333,99.5 67.5,99.5C 67.5,98.1667 67.5,96.8333 67.5,95.5 Z"/></g>
<g><path style="opacity:1" fill="#de7125" d="M 75.5,99.5 C 76.8333,99.5 78.1667,99.5 79.5,99.5C 79.5,100.833 79.5,102.167 79.5,103.5C 78.1667,103.5 76.8333,103.5 75.5,103.5C 75.5,102.167 75.5,100.833 75.5,99.5 Z"/></g>
<g><path style="opacity:1" fill="#ab3231" d="M 79.5,99.5 C 80.8333,99.5 82.1667,99.5 83.5,99.5C 83.5,100.833 83.5,102.167 83.5,103.5C 82.1667,103.5 80.8333,103.5 79.5,103.5C 79.5,102.167 79.5,100.833 79.5,99.5 Z"/></g>
<g><path style="opacity:1" fill="#ab3231" d="M 75.5,103.5 C 76.8333,103.5 78.1667,103.5 79.5,103.5C 79.5,104.833 79.5,106.167 79.5,107.5C 78.1667,107.5 76.8333,107.5 75.5,107.5C 75.5,106.167 75.5,104.833 75.5,103.5 Z"/></g>
<g><path style="opacity:1" fill="#de7125" d="M 79.5,103.5 C 80.8333,103.5 82.1667,103.5 83.5,103.5C 83.5,106.167 83.5,108.833 83.5,111.5C 82.1667,111.5 80.8333,111.5 79.5,111.5C 79.5,110.167 79.5,108.833 79.5,107.5C 79.5,106.167 79.5,104.833 79.5,103.5 Z"/></g>
<g><path style="opacity:1" fill="#212034" d="M 91.5,103.5 C 91.5,106.167 91.5,108.833 91.5,111.5C 90.1667,111.5 88.8333,111.5 87.5,111.5C 87.5,108.833 87.5,106.167 87.5,103.5C 88.8333,103.5 90.1667,103.5 91.5,103.5 Z"/></g>
<g><path style="opacity:1" fill="#212034" d="M 75.5,107.5 C 76.8333,107.5 78.1667,107.5 79.5,107.5C 79.5,108.833 79.5,110.167 79.5,111.5C 79.5,112.833 79.5,114.167 79.5,115.5C 78.1667,115.5 76.8333,115.5 75.5,115.5C 75.5,112.833 75.5,110.167 75.5,107.5 Z"/></g>
<g><path style="opacity:1" fill="#686a69" d="M 79.5,111.5 C 80.8333,111.5 82.1667,111.5 83.5,111.5C 83.5,112.833 83.5,114.167 83.5,115.5C 82.1667,115.5 80.8333,115.5 79.5,115.5C 79.5,114.167 79.5,112.833 79.5,111.5 Z"/></g>
<g><path style="opacity:1" fill="#212034" d="M 83.5,111.5 C 84.8333,111.5 86.1667,111.5 87.5,111.5C 87.5,112.833 87.5,114.167 87.5,115.5C 86.1667,115.5 84.8333,115.5 83.5,115.5C 83.5,114.167 83.5,112.833 83.5,111.5 Z"/></g>
<g><path style="opacity:1" fill="#212034" d="M 79.5,115.5 C 80.8333,115.5 82.1667,115.5 83.5,115.5C 83.5,116.833 83.5,118.167 83.5,119.5C 82.1667,119.5 80.8333,119.5 79.5,119.5C 79.5,118.167 79.5,116.833 79.5,115.5 Z"/></g>
</svg>
